<?xml version="1.0" encoding="UTF-8" standalone="no" ?>
<!DOCTYPE svg PUBLIC "-//W3C//DTD SVG 1.1//EN" "http://www.w3.org/Graphics/SVG/1.1/DTD/svg11.dtd">
<svg xmlns="http://www.w3.org/2000/svg" xmlns:xlink="http://www.w3.org/1999/xlink" version="1.1" width="500" height="500" viewBox="0 0 500 500" xml:space="preserve">
<desc>Created with Fabric.js 4.6.0</desc>
<defs>
</defs>
<g transform="matrix(1 0 0 1 275.36 212.29)" id="euHNyhSTAB4pWmDRLr02O"  >
<path style="stroke: rgb(0,0,0); stroke-width: 1; stroke-dasharray: none; stroke-linecap: round; stroke-dashoffset: 0; stroke-linejoin: round; stroke-miterlimit: 10; fill: none; fill-rule: nonzero; opacity: 1;" vector-effect="non-scaling-stroke"  transform=" translate(-275.36, -212.29)" d="M 322.1726514954486 159.29878933680104 Q 322.1716514954486 159.29778933680103 320.5461638491547 158.97269180754225 Q 318.9206762028609 158.64759427828346 316.6449934980494 157.67230169050714 Q 314.36931079323796 156.69700910273082 311.1183355006502 155.07152145643693 Q 307.8673602080624 153.44603381014304 304.9414824447334 152.4707412223667 Q 302.0156046814044 151.49544863459036 300.3901170351105 151.17035110533158 Q 298.7646293888166 150.84525357607282 295.51365409622883 150.52015604681404 Q 292.2626788036411 150.19505851755525 290.6371911573472 149.8699609882965 Q 289.0117035110533 149.5448634590377 287.0611183355006 149.5448634590377 Q 285.110533159948 149.5448634590377 283.15994798439533 149.5448634590377 Q 281.2093628088426 149.5448634590377 279.58387516254874 149.5448634590377 Q 277.95838751625485 149.5448634590377 276.332899869961 149.21976592977893 Q 274.7074122236671 148.89466840052015 273.407022106632 148.89466840052015 Q 272.10663198959685 148.89466840052015 269.50585175552663 148.89466840052015 Q 266.9050715214564 148.89466840052015 264.9544863459038 148.89466840052015 Q 263.0039011703511 148.89466840052015 260.72821846553967 148.89466840052015 Q 258.4525357607282 148.89466840052015 255.20156046814043 148.89466840052015 Q 251.95058517555265 148.89466840052015 249.67490247074122 149.54486345903769 Q 247.3992197659298 150.19505851755525 246.09882964889468 150.19505851755525 Q 244.79843953185957 150.19505851755525 243.82314694408322 150.84525357607282 Q 242.84785435630687 151.49544863459036 240.24707412223665 151.82054616384914 Q 237.64629388816644 152.14564369310793 236.02080624187255 152.79583875162547 Q 234.39531859557866 153.44603381014304 232.444733420026 154.0962288686606 Q 230.49414824447337 154.74642392717814 227.24317295188558 156.37191157347203 Q 223.9921976592978 157.99739921976592 222.3667100130039 158.97269180754228 Q 220.74122236671002 159.9479843953186 219.4408322496749 160.92327698309492 Q 218.1404421326398 161.89856957087125 215.86475942782835 162.87386215864757 Q 213.5890767230169 163.84915474642392 211.31339401820546 165.7997399219766 Q 209.03771131339403 167.75032509752924 207.73732119635892 168.72561768530556 Q 206.4369310793238 169.70091027308192 205.78673602080625 170.0260078023407 Q 205.13654096228868 170.35110533159948 203.18595578673603 172.30169050715216 Q 201.23537061118338 174.2522756827048 200.26007802340703 175.22756827048113 Q 199.28478543563068 176.20286085825748 197.98439531859557 177.1781534460338 Q 196.68400520156047 178.15344603381013 194.7334200260078 180.75422626788037 Q 192.78283485045512 183.35500650195058 191.8075422626788 185.63068920676204 Q 190.83224967490247 187.90637191157347 190.1820546163849 189.85695708712615 Q 189.53185955786734 191.8075422626788 188.556566970091 194.408322496749 Q 187.5812743823147 197.00910273081922 187.5812743823147 197.98439531859555 Q 187.5812743823147 198.9596879063719 186.93107932379715 201.56046814044214 Q 186.2808842652796 204.16124837451235 185.95578673602083 206.111833550065 Q 185.63068920676204 208.06241872561768 185.63068920676204 209.36280884265278 Q 185.63068920676204 210.6631989596879 185.63068920676204 213.26397919375813 Q 185.63068920676204 215.86475942782835 185.63068920676204 217.16514954486345 Q 185.63068920676204 218.46553966189856 185.63068920676204 221.06631989596877 Q 185.63068920676204 223.667100130039 185.63068920676204 224.96749024707412 Q 185.63068920676204 226.26788036410923 185.95578673602083 227.8933680104031 Q 186.2808842652796 229.51885565669699 186.2808842652796 231.14434330299088 Q 186.2808842652796 232.76983094928477 186.60598179453837 234.07022106631987 Q 186.93107932379712 235.37061118335498 188.556566970091 238.62158647594276 Q 190.1820546163849 241.87256176853055 191.48244473342 243.8231469440832 Q 192.78283485045512 245.77373211963587 195.38361508452536 248.69960988296486 Q 197.9843953185956 251.62548764629386 199.2847854356307 252.92587776332897 Q 200.58517555266582 254.22626788036408 204.16124837451235 256.5019505851755 Q 207.7373211963589 258.77763328998697 209.037711313394 260.0780234070221 Q 210.3381014304291 261.3784135240572 212.28868660598178 262.3537061118335 Q 214.23927178153446 263.3289986996098 215.86475942782835 263.9791937581274 Q 217.49024707412224 264.62938881664496 221.39141742522756 266.5799739921976 Q 225.29258777633288 268.53055916775025 229.84395318595577 269.8309492847854 Q 234.39531859557866 271.1313394018205 236.34590377113133 271.7815344603381 Q 238.296488946684 272.4317295188556 241.5474642392718 273.0819245773732 Q 244.79843953185957 273.73211963589074 249.02470741222368 274.38231469440825 Q 253.25097529258778 275.0325097529258 255.851755526658 275.35760728218463 Q 258.4525357607282 275.6827048114434 262.3537061118335 275.6827048114434 Q 266.25487646293885 275.6827048114434 267.88036410923274 275.6827048114434 Q 269.50585175552663 275.6827048114434 274.3823146944083 275.6827048114434 Q 279.25877763329 275.6827048114434 287.7113133940182 274.0572171651495 Q 296.1638491547464 272.4317295188556 300.06501950585175 271.7815344603381 Q 303.9661898569571 271.1313394018205 308.8426527958387 269.8309492847854 Q 313.7191157347204 268.53055916775025 319.8959687906372 266.9050715214564 Q 326.07282184655395 265.27958387516253 328.67360208062416 264.30429128738615 Q 331.2743823146944 263.3289986996098 333.55006501950584 262.02860858257475 Q 335.8257477243173 260.7282184655396 339.0767230169051 259.1027308192457 Q 342.32769830949286 257.47724317295183 344.6033810143043 255.52665799739918 Q 346.8790637191157 253.57607282184657 348.17945383615086 252.6007802340702 Q 349.47984395318593 251.62548764629386 350.780234070221 250.65019505851754 Q 352.08062418725615 249.67490247074122 353.70611183355004 248.04941482444733 Q 355.33159947984393 246.42392717815343 355.9817945383615 245.12353706111833 Q 356.63198959687907 243.82314694408322 357.2821846553966 242.19765929778933 Q 357.93237971391414 240.57217165149544 358.90767230169047 238.296488946684 Q 359.88296488946685 236.02080624187255 360.85825747724317 233.7451235370611 Q 361.8335500650195 231.46944083224966 362.48374512353706 229.84395318595577 Q 363.13394018205463 228.21846553966188 363.4590377113134 226.91807542262677 Q 363.78413524057214 225.61768530559166 364.1092327698309 223.99219765929777 Q 364.4343302990897 222.36671001300388 364.4343302990897 220.74122236671 Q 364.4343302990897 219.1157347204161 364.7594278283485 218.14044213263978 Q 365.0845253576073 217.16514954486345 365.0845253576073 215.86475942782835 Q 365.0845253576073 214.56436931079324 365.0845253576073 213.91417425227567 Q 365.0845253576073 213.2639791937581 365.0845253576073 211.963589076723 Q 365.0845253576073 210.6631989596879 365.0845253576073 209.36280884265278 Q 365.0845253576073 208.06241872561768 364.7594278283485 207.41222366710014 Q 364.4343302990897 206.76202860858257 364.4343302990897 204.8114434330299 Q 364.4343302990897 202.86085825747722 364.4343302990897 202.21066319895965 Q 364.4343302990897 201.5604681404421 364.1092327698309 200.260078023407 Q 363.78413524057214 198.9596879063719 363.78413524057214 198.30949284785436 Q 363.78413524057214 197.6592977893368 363.13394018205463 196.35890767230168 Q 362.48374512353706 195.05851755526658 362.15864759427825 193.75812743823147 Q 361.8335500650195 192.45773732119636 361.1833550065019 191.8075422626788 Q 360.53315994798436 191.15734720416123 359.88296488946685 189.20676202860858 Q 359.2327698309493 187.2561768530559 358.5825747724317 185.9557867360208 Q 357.93237971391414 184.6553966189857 357.2821846553966 183.35500650195058 Q 356.63198959687907 182.05461638491548 355.9817945383615 181.07932379713912 Q 355.33159947984393 180.1040312093628 354.6814044213264 179.12873862158648 Q 354.03120936280885 178.15344603381013 353.3810143042913 177.5032509752926 Q 352.7308192457737 176.85305591677502 352.08062418725615 175.8777633289987 Q 351.43042912873864 174.90247074122234 350.45513654096226 174.2522756827048 Q 349.47984395318593 173.60208062418724 348.82964889466837 172.95188556566967 Q 348.17945383615086 172.30169050715213 347.5292587776333 171.3263979193758 Q 346.8790637191157 170.35110533159948 345.9037711313394 169.70091027308192 Q 344.9284785435631 169.05071521456435 344.2782834850455 168.4005201560468 Q 343.62808842652794 167.75032509752924 342.6527958387516 167.10013003901167 Q 341.6775032509753 166.44993498049413 341.0273081924577 166.12483745123535 Q 340.37711313394016 165.7997399219766 339.40182054616383 165.14954486345903 Q 338.4265279583875 164.49934980494146 336.8010403120936 164.1742522756827 Q 335.1755526657997 163.84915474642392 334.2002600780234 163.19895968790638 Q 333.2249674902471 162.5487646293888 331.5994798439532 161.5734720416125 Q 329.9739921976593 160.59817945383614 328.67360208062416 159.9479843953186 Q 327.3732119635891 159.29778933680103 325.4226267880364 158.64759427828346 Q 323.47204161248374 157.99739921976592 322.1716514954486 157.67230169050714 Q 320.8712613784135 157.34720416124836 317.2951885565669 156.69700910273082 Q 313.7191157347204 156.04681404421325 311.1183355006502 155.7217165149545 Q 308.51755526657996 155.3966189856957 304.9414824447334 155.07152145643693 Q 301.3654096228869 154.74642392717814 299.41482444733424 154.74642392717814 Q 297.46423927178154 154.74642392717814 294.8634590377113 154.74642392717814 Q 292.2626788036411 154.74642392717814 288.6866059817945 155.07152145643693 Q 285.110533159948 155.3966189856957 280.2340702210663 156.37191157347203 Q 275.35760728218463 157.34720416124836 273.08192457737323 157.34720416124836 Q 270.80624187256177 157.34720416124836 268.85565669700907 158.3224967490247 L 266.90407152145644 159.29878933680104" stroke-linecap="round" />
</g>
<g transform="matrix(1 0 0 1 -26.98 11.7)" id="Fh7B61AYfwcJmZKWcIzcM"  >
<path style="stroke: rgb(0,0,0); stroke-width: 1; stroke-dasharray: none; stroke-linecap: round; stroke-dashoffset: 0; stroke-linejoin: round; stroke-miterlimit: 10; fill: none; fill-rule: nonzero; opacity: 1;" vector-effect="non-scaling-stroke"  transform=" translate(26.98, -11.7)" d="M -26.984094928478523 11.703511053315994 L -26.98209492847852 11.703511053315994" stroke-linecap="round" />
</g>
</svg>